<svg width="166" height="54" viewBox="0 0 166 54" fill="none" xmlns="http://www.w3.org/2000/svg">
<g filter="url(#filter0_d)">
<path d="M33.382 12.6136H23.5497V39.5455H15.6523V12.6136H6V6.45455H33.382V12.6136Z" fill="#10872A"/>
<path d="M48.9068 27.8636H44.6318V39.5455H36.7345V6.45455H49.6268C53.5117 6.45455 56.5491 7.32576 58.7391 9.06818C60.9291 10.8106 62.024 13.2727 62.024 16.4545C62.024 18.7576 61.559 20.6667 60.6291 22.1818C59.7141 23.697 58.2741 24.9242 56.3091 25.8636L63.149 39.2045V39.5455H54.6892L48.9068 27.8636ZM44.6318 21.7045H49.6268C51.1267 21.7045 52.2517 21.3106 53.0017 20.5227C53.7667 19.7197 54.1492 18.6061 54.1492 17.1818C54.1492 15.7576 53.7667 14.6439 53.0017 13.8409C52.2367 13.0227 51.1117 12.6136 49.6268 12.6136H44.6318V21.7045Z" fill="#10872A"/>
<path d="M92.4885 6.45455V28.1136C92.4885 30.5682 91.971 32.697 90.936 34.5C89.9011 36.2879 88.4161 37.6515 86.4811 38.5909C84.5462 39.5303 82.2587 40 79.6187 40C75.6288 40 72.4864 38.9545 70.1914 36.8636C67.8964 34.7727 66.7265 31.9091 66.6815 28.2727V6.45455H74.6238V28.4318C74.7138 32.053 76.3788 33.8636 79.6187 33.8636C81.2537 33.8636 82.4912 33.4091 83.3312 32.5C84.1712 31.5909 84.5912 30.1136 84.5912 28.0682V6.45455H92.4885Z" fill="#10872A"/>
<path d="M114.336 30.75C114.336 29.5833 113.923 28.6742 113.098 28.0227C112.288 27.3712 110.856 26.697 108.801 26C106.746 25.303 105.066 24.6288 103.761 23.9773C99.5159 21.8712 97.3934 18.9773 97.3934 15.2955C97.3934 13.4621 97.9184 11.8485 98.9684 10.4545C100.033 9.04545 101.533 7.95455 103.468 7.18182C105.403 6.39394 107.578 6 109.993 6C112.348 6 114.456 6.42424 116.316 7.27273C118.191 8.12121 119.646 9.33333 120.681 10.9091C121.716 12.4697 122.233 14.2576 122.233 16.2727H114.358C114.358 14.9242 113.946 13.8788 113.121 13.1364C112.311 12.3939 111.208 12.0227 109.813 12.0227C108.403 12.0227 107.286 12.3409 106.461 12.9773C105.651 13.5985 105.246 14.3939 105.246 15.3636C105.246 16.2121 105.696 16.9848 106.596 17.6818C107.496 18.3636 109.078 19.0758 111.343 19.8182C113.608 20.5455 115.468 21.3333 116.923 22.1818C120.463 24.2424 122.233 27.0833 122.233 30.7045C122.233 33.5985 121.153 35.8712 118.993 37.5227C116.833 39.1742 113.871 40 110.106 40C107.451 40 105.043 39.5227 102.883 38.5682C100.738 37.5985 99.1184 36.2803 98.0234 34.6136C96.9434 32.9318 96.4034 31 96.4034 28.8182H104.323C104.323 30.5909 104.773 31.9015 105.673 32.75C106.588 33.5833 108.066 34 110.106 34C111.411 34 112.438 33.7197 113.188 33.1591C113.953 32.5833 114.336 31.7803 114.336 30.75Z" fill="#10872A"/>
<path d="M152 12.6136H142.168V39.5455H134.27V12.6136H124.618V6.45455H152V12.6136Z" fill="#10872A"/>
</g>
<defs>
<filter id="filter0_d" x="0" y="0" width="166" height="54" filterUnits="userSpaceOnUse" color-interpolation-filters="sRGB">
<feFlood flood-opacity="0" result="BackgroundImageFix"/>
<feColorMatrix in="SourceAlpha" type="matrix" values="0 0 0 0 0 0 0 0 0 0 0 0 0 0 0 0 0 0 127 0"/>
<feOffset dx="4" dy="4"/>
<feGaussianBlur stdDeviation="5"/>
<feColorMatrix type="matrix" values="0 0 0 0 0 0 0 0 0 0 0 0 0 0 0 0 0 0 0.25 0"/>
<feBlend mode="normal" in2="BackgroundImageFix" result="effect1_dropShadow"/>
<feBlend mode="normal" in="SourceGraphic" in2="effect1_dropShadow" result="shape"/>
</filter>
</defs>
</svg>
